<?xml version="1.0" encoding="UTF-8" standalone="no"?><!DOCTYPE svg PUBLIC "-//W3C//DTD SVG 1.1//EN" "http://www.w3.org/Graphics/SVG/1.1/DTD/svg11.dtd"><svg width="100%" height="100%" viewBox="0 0 95 101" version="1.1" xmlns="http://www.w3.org/2000/svg" xmlns:xlink="http://www.w3.org/1999/xlink" xml:space="preserve" style="fill-rule:evenodd;clip-rule:evenodd;stroke-linejoin:round;stroke-miterlimit:1.41421;"><g><path d="M72.785,20.777c-1.746,-1.097 -3.762,-1.701 -5.941,-1.809c-0.012,-0.509 -0.033,-0.949 -0.055,-1.305c-0.083,-1.344 -1.201,-2.397 -2.546,-2.397l-44.687,0c-1.346,0 -2.464,1.053 -2.547,2.397c-0.136,2.209 -0.25,8.005 1.618,14.104c0.239,0.779 1.065,1.217 1.842,0.978c0.779,-0.239 1.216,-1.065 0.977,-1.845c-0.562,-1.835 -0.93,-3.642 -1.166,-5.316l43.239,0c-0.292,2.072 -0.786,4.345 -1.602,6.628c-2.525,7.068 -7.236,11.817 -14.009,14.138l-12.022,0c-5.123,-1.758 -9.09,-4.929 -11.801,-9.439c-0.421,-0.699 -1.326,-0.924 -2.024,-0.504c-0.698,0.421 -0.922,1.328 -0.503,2.027c1.966,3.27 4.51,5.913 7.597,7.916l-10.542,0c-1.38,0 -2.504,1.125 -2.504,2.508l0,1.363c0,3.34 2.714,6.058 6.049,6.058l0.796,0l0,1.811c0,2.597 2.11,4.71 4.703,4.71l28.483,0c2.593,0 4.703,-2.113 4.703,-4.71l0,-1.811l0.796,0c3.336,0 6.049,-2.718 6.049,-6.058l0,-1.363c0,-1.383 -1.124,-2.508 -2.504,-2.508l-10.541,0c0.779,-0.505 1.524,-1.052 2.233,-1.638c3.539,-0.087 7.124,-0.712 10.422,-1.822c2.895,-0.974 5.281,-2.393 7.092,-4.216c2.567,-2.585 3.856,-6.264 3.448,-9.842c-0.385,-3.388 -2.18,-6.248 -5.053,-8.055l0,0Zm-14.89,37.313c0,0.968 -0.787,1.756 -1.754,1.756l-28.484,0c-0.967,0 -1.754,-0.788 -1.754,-1.756l0,-1.811l31.992,0l0,1.811Zm6.845,-8.787l0,0.918c0,1.712 -1.391,3.105 -3.1,3.105l-39.481,0c-1.71,0 -3.101,-1.393 -3.101,-3.105l0,-0.918l45.682,0Zm-0.046,-16.096c0.696,-1.95 1.176,-3.891 1.504,-5.723c0.728,0.006 1.453,0.145 2.054,0.523c0.652,0.41 1.028,1.013 1.117,1.793c0.117,1.024 -0.265,2.091 -1.022,2.853c-0.857,0.863 -2.159,1.604 -3.765,2.145c-0.194,0.065 -0.391,0.127 -0.588,0.188c0.248,-0.58 0.483,-1.172 0.7,-1.779l0,0Zm-44.718,-10.576c-0.122,-1.868 -0.094,-3.412 -0.045,-4.413l43.936,0c0.05,1.022 0.077,2.561 -0.044,4.413l-43.847,0Zm52.324,13.96c-1.485,1.495 -3.484,2.673 -5.941,3.5c-2.008,0.676 -4.138,1.151 -6.293,1.42c0.774,-0.939 1.487,-1.945 2.134,-3.016c1.13,-0.236 2.242,-0.535 3.322,-0.898c2.038,-0.686 3.738,-1.676 4.916,-2.861c1.383,-1.393 2.078,-3.363 1.861,-5.271c-0.19,-1.667 -1.07,-3.073 -2.479,-3.959c-1.004,-0.631 -2.114,-0.902 -3.204,-0.96c0.099,-0.931 0.161,-1.811 0.198,-2.622c1.632,0.099 3.125,0.55 4.403,1.354c2.099,1.32 3.41,3.411 3.692,5.888c0.308,2.695 -0.668,5.471 -2.609,7.425Z" style="fill-rule:nonzero;"/><path d="M85.706,0l-77.389,0c-4.586,0 -8.317,3.737 -8.317,8.33l0,84.144c0,4.593 3.731,8.33 8.317,8.33l51.574,0c0.815,0 1.475,-0.661 1.475,-1.477c0,-0.815 -0.66,-1.476 -1.475,-1.476l-51.574,0c-2.96,0 -5.368,-2.412 -5.368,-5.377l0,-84.144c0,-2.965 2.408,-5.377 5.368,-5.377l77.389,0c2.96,0 5.368,2.412 5.368,5.377l0,84.144c0,2.965 -2.408,5.377 -5.368,5.377l-18.905,0c-0.815,0 -1.475,0.661 -1.475,1.476c0,0.816 0.66,1.477 1.475,1.477l18.905,0c4.586,0 8.317,-3.737 8.317,-8.33l0,-84.144c0,-4.593 -3.731,-8.33 -8.317,-8.33l0,0Z" style="fill-rule:nonzero;"/><path d="M86.815,89.193l0,-77.583c0,-2.375 -1.929,-4.307 -4.301,-4.307l-71.005,0c-2.372,0 -4.301,1.932 -4.301,4.307l0,77.583c0,2.375 1.929,4.307 4.301,4.307l71.005,0c2.372,0 4.301,-1.932 4.301,-4.307Zm-76.659,0l0,-77.583c0,-0.746 0.607,-1.354 1.353,-1.354l71.005,0c0.746,0 1.353,0.608 1.353,1.354l0,77.583c0,0.747 -0.607,1.354 -1.353,1.354l-71.005,0c-0.746,0.001 -1.353,-0.607 -1.353,-1.354l0,0Z" style="fill-rule:nonzero;"/><path d="M45.285,68.928c-0.005,-0.014 -0.011,-0.027 -0.016,-0.04c-0.28,-0.683 -0.937,-1.124 -1.674,-1.124c0,0 -0.001,0 -0.001,0c-0.738,0.001 -1.395,0.443 -1.674,1.126c-0.004,0.012 -5.57,14.646 -5.57,14.646c-0.29,0.762 0.092,1.615 0.853,1.905c0.76,0.29 1.612,-0.092 1.902,-0.854l1.023,-2.688l6.893,0l1.011,2.684c0.223,0.591 0.784,0.955 1.38,0.955c0.173,0 0.349,-0.03 0.52,-0.095c0.762,-0.288 1.146,-1.14 0.859,-1.903l-5.506,-14.612Zm-4.034,10.018l2.339,-6.151l2.318,6.151l-4.657,0Z" style="fill-rule:nonzero;"/><path d="M62.046,67.654l-5.954,0c-0.814,0 -1.474,0.661 -1.474,1.476l0,14.712c0,0.815 0.66,1.477 1.474,1.477c0.815,0 1.475,-0.662 1.475,-1.477l0,-6.019l4.007,0c0.814,0 1.474,-0.661 1.474,-1.476c0,-0.816 -0.66,-1.477 -1.474,-1.477l-4.007,0l0,-4.263l4.479,0c0.815,0 1.475,-0.661 1.475,-1.477c0,-0.815 -0.66,-1.476 -1.475,-1.476Z" style="fill-rule:nonzero;"/><path d="M74.112,70.633c0.814,0 1.474,-0.661 1.474,-1.476c0,-0.815 -0.66,-1.476 -1.474,-1.476l-6.179,0c-0.815,0 -1.474,0.661 -1.474,1.476l0,14.685c0,0.815 0.659,1.477 1.474,1.477l6.179,0c0.814,0 1.474,-0.662 1.474,-1.477c0,-0.815 -0.66,-1.476 -1.474,-1.476l-4.705,0l0,-4.39l4.249,0c0.814,0 1.474,-0.661 1.474,-1.476c0,-0.816 -0.66,-1.477 -1.474,-1.477l-4.249,0l0,-4.39l4.705,0Z" style="fill-rule:nonzero;"/><path d="M32.92,80.619c-0.624,-0.524 -1.553,-0.442 -2.077,0.182c-0.141,0.168 -0.293,0.326 -0.452,0.467c-0.816,0.729 -1.853,1.098 -3.08,1.098c-3.267,0 -5.926,-2.662 -5.926,-5.934c0,-3.272 2.658,-5.934 5.926,-5.934c1.187,0 2.332,0.35 3.311,1.013c0.676,0.457 1.592,0.279 2.047,-0.397c0.456,-0.676 0.279,-1.594 -0.396,-2.05c-1.468,-0.994 -3.184,-1.519 -4.962,-1.519c-4.893,0 -8.874,3.987 -8.874,8.887c0,4.9 3.981,8.887 8.874,8.887c1.945,0 3.688,-0.638 5.041,-1.846c0.265,-0.236 0.517,-0.496 0.75,-0.773c0.523,-0.625 0.442,-1.556 -0.182,-2.081l0,0Z" style="fill-rule:nonzero;"/></g></svg>