<svg xmlns="http://www.w3.org/2000/svg"><symbol id="mastodon-svg-logo-full" viewBox="0 0 713.35878 175.8678" fill-rule="evenodd"><g><path d="M160.682,114.58c6.123,0 12.568,-0.967 15.576,-2.363l0,-14.18c-4.189,0.967 -8.486,1.396 -13.105,1.396c-11.924,0 -16.221,-4.834 -16.221,-25.459c0,-20.84 4.297,-25.674 16.328,-25.674c3.76,0 8.486,0.43 12.998,1.182l0,-14.502c-5.586,-1.289 -10.849,-1.826 -15.791,-1.826c-21.269,0 -32.549,12.783 -32.549,40.713c0,27.93 11.065,40.713 32.764,40.713Zm-141.302,-64.668l-18.047,0l0,-15.791l54.57,0l0,15.791l-18.154,0l0,63.701l-18.369,0l0,-63.701Zm101.234,-15.791l0,16.972l-31.475,46.084l0,0.967l33.193,0l0,15.469l-53.496,0l0,-16.865l31.475,-45.977l0,-1.182l-29.864,0l0,-15.468l50.167,0Z"></path><path d="M557.06,114.58c17.08,0 25.996,-10.312 25.996,-30.078c0,-19.766 -8.916,-30.078 -25.996,-30.078c-17.08,0 -25.996,10.312 -25.996,30.078c0,19.658 8.916,30.078 25.996,30.078Zm-125.361,-0.107c6.338,0 14.502,-1.397 19.873,-3.33l-0.537,-13.106c-7.305,1.826 -14.287,3.008 -18.369,3.008c-6.446,0 -8.702,-2.148 -9.239,-10.527l29.541,0c0.43,-2.364 0.537,-3.975 0.537,-8.272c0,-19.013 -6.875,-27.715 -21.914,-27.715c-17.402,0 -26.318,10.42 -26.318,30.616c0,19.228 9.023,29.326 26.426,29.326Zm82.5,0c3.974,0 8.164,-0.645 11.064,-1.719l0,-13.857c-3.222,0.859 -6.123,1.181 -9.238,1.181c-8.701,0 -12.139,-4.619 -12.139,-15.683c0,-11.065 3.33,-15.362 12.246,-15.362c2.579,0 5.694,0.43 9.131,1.182l0,-13.965c-3.115,-1.182 -7.09,-1.719 -11.064,-1.719c-19.121,0 -28.682,9.346 -28.682,29.971c0,20.733 9.561,29.971 28.682,29.971Zm-44.688,-0.108c6.875,0 9.883,-2.9 9.883,-9.668c0,-6.767 -3.115,-9.56 -9.883,-9.56c-7.09,0 -9.99,2.793 -9.99,9.56c0,6.875 3.008,9.668 9.99,9.668Zm-103.317,-58.867l0,-2.793c0,-19.551 7.627,-26.103 30.937,-26.748l1.182,13.428c-11.279,0.859 -14.18,3.222 -14.18,11.816l0,4.297l11.709,0l0,15.039l-11.709,0l0,42.969l-18.047,0l0,-42.969l-7.734,0l0,-15.039l7.842,0Zm271.218,6.231c7.949,-5.694 11.924,-7.305 17.832,-7.305c8.057,0 13.213,5.908 13.213,15.469l0,43.613l-17.617,0l0,-37.061c0,-4.296 -1.612,-6.445 -4.942,-6.445c-2.041,0 -4.619,1.074 -7.412,2.793l0,40.713l-17.617,0l0,-37.061c0,-4.296 -1.719,-6.445 -5.049,-6.445c-2.041,0 -4.512,1.074 -7.412,2.793l0,40.713l-17.51,0l0,-58.008l14.717,0l0.967,6.231l0.322,0c8.809,-5.909 12.461,-7.305 18.262,-7.305c5.263,0 9.346,2.471 11.601,7.305l0.645,0Zm-80.352,39.209c-6.552,0 -8.056,-2.901 -8.056,-16.436c0,-13.535 1.504,-16.436 8.056,-16.436c6.446,0 7.949,2.901 7.949,16.436c0,13.535 -1.503,16.436 -7.949,16.436Zm-119.346,-21.377c-0.214,-8.594 -2.041,-11.709 -6.552,-11.709c-5.049,0 -7.305,3.007 -7.842,11.709l14.394,0Z"></path><path d="M211.535,114.176c-13.237,-13.947 -18.902,-28.705 -18.902,-43.692c0,-41.602 41.79,-74.874 90.221,-70.011c40.796,4.005 73.772,35.992 71.267,73.974c-0.824,13.111 -5.736,26.022 -18.447,39.393l-57.036,60.039c-1.275,1.346 -3.183,2.128 -5.195,2.128c-2.011,0 -3.919,-0.782 -5.194,-2.128l-56.714,-59.703Z" fill="#3088d4"></path><path d="M299.698,82.165c-3.18,13.352 -16.762,23.363 -32.989,23.363c-18.565,0 -33.67,-13.101 -33.67,-29.203l0,-23.364c0,-3.228 3.011,-5.839 6.734,-5.84l67.34,0c11.141,0.001 20.203,7.86 20.203,17.522c0,9.637 -9.017,17.482 -20.203,17.522l-7.415,0Zm-12.786,-23.363l0,17.523c0,9.661 -9.064,17.522 -20.203,17.522c-11.14,0 -20.203,-7.861 -20.203,-17.522l0,-17.523l40.406,0Zm20.201,11.682c3.716,-0.001 6.734,-2.618 6.734,-5.841c0,-3.196 -2.97,-5.799 -6.734,-5.841l-6.733,0l0,11.682l6.733,0Z"></path></g></symbol></svg>