<?xml version="1.0" encoding="UTF-8" standalone="no"?><!DOCTYPE svg PUBLIC "-//W3C//DTD SVG 1.1//EN" "http://www.w3.org/Graphics/SVG/1.1/DTD/svg11.dtd"><svg width="100%" height="100%" viewBox="0 0 1024 1024" version="1.1" xmlns="http://www.w3.org/2000/svg" xmlns:xlink="http://www.w3.org/1999/xlink" xml:space="preserve" style="fill-rule:evenodd;clip-rule:evenodd;stroke-linejoin:round;stroke-miterlimit:1.41421;"><g id="图层1"><text x="-0.386px" y="113.613px" style="font-family:'WenYue-XinQingNianTi-NC-W8', 'WenYue XinQingNianTi (Non-Commercial Use)';font-size:107.422px;">T<tspan x="66.258px 133.518px " y="113.613px 113.613px ">ZC</tspan></text><text x="357.063px" y="113.506px" style="font-family:'WenYue-XinQingNianTi-NC-W8', 'WenYue XinQingNianTi (Non-Commercial Use)';font-size:107.422px;">f<tspan x="402.48px 464.31px 494.67px 546.997px 613.27px " y="113.506px 113.506px 113.506px 113.506px 113.506px ">e.com</tspan></text><g><path d="M211.535,114.176l56.714,59.703c1.275,1.346 3.183,2.128 5.194,2.128c2.012,0 3.92,-0.782 5.195,-2.128l57.036,-60.039c12.711,-13.371 17.623,-26.282 18.447,-39.393c2.505,-37.982 -30.471,-69.969 -71.267,-73.974c-48.431,-4.863 -90.221,28.409 -90.221,70.011c0,15.008 5.681,29.787 18.902,43.692l0,0Z" style="fill:#3088d4;"/><path d="M307.113,47.121c11.141,0.001 20.203,7.86 20.203,17.522c0,9.661 -9.062,17.522 -20.203,17.522l-7.415,0c-3.129,13.314 -16.731,23.363 -32.989,23.363c-18.565,0 -33.67,-13.101 -33.67,-29.203l0,-23.364c0,-3.228 3.011,-5.839 6.734,-5.84l67.34,0Zm-20.201,11.681l0,17.523c0,9.661 -9.064,17.522 -20.203,17.522c-11.14,0 -20.203,-7.861 -20.203,-17.522l0,-17.523l40.406,0Zm20.201,11.682c3.716,-0.001 6.734,-2.618 6.734,-5.841c0,-3.222 -3.018,-5.841 -6.734,-5.841l-6.733,0l0,11.682l6.733,0Z"/></g></g></svg>