<svg viewBox="0 0 1024 1024" xmlns="http://www.w3.org/2000/svg" fill-rule="evenodd"><path d="M25.31,150.506c-17.704,-18.33 -25.31,-37.811 -25.31,-57.595c0,-54.839 55.957,-98.698 120.807,-92.287c54.628,5.279 98.782,47.443 95.429,97.512c-1.104,17.281 -7.681,34.3 -24.702,51.927l-76.372,79.142c-1.708,1.774 -4.263,2.805 -6.956,2.805c-2.693,0 -5.248,-1.031 -6.956,-2.805l-75.94,-78.699l0,0Zm127.98,-42.197c14.919,0 27.053,-10.362 27.053,-23.098c0,-12.736 -12.134,-23.096 -27.053,-23.096l-90.168,0c-4.986,0 -9.018,3.443 -9.018,7.697l0,30.798c0,21.226 20.226,38.495 45.085,38.495c21.77,0 39.983,-13.245 44.173,-30.796l9.928,0Zm-27.049,-30.797l0,23.098c0,12.736 -12.136,23.098 -27.052,23.098c-14.917,0 -27.052,-10.362 -27.052,-23.098l0,-23.098l54.104,0Zm27.049,0c4.977,0 9.018,3.452 9.018,7.699c0,4.249 -4.041,7.699 -9.018,7.7l-9.015,0l0,-15.399l9.015,0Z" fill-rule="nonzero"/></svg>