<?xml version="1.0" encoding="UTF-8" standalone="no"?><!DOCTYPE svg PUBLIC "-//W3C//DTD SVG 1.1//EN" "http://www.w3.org/Graphics/SVG/1.1/DTD/svg11.dtd"><svg width="100%" height="100%" viewBox="0 0 1024 1024" version="1.1" xmlns="http://www.w3.org/2000/svg" xmlns:xlink="http://www.w3.org/1999/xlink" xml:space="preserve" style="fill-rule:evenodd;clip-rule:evenodd;stroke-linejoin:round;stroke-miterlimit:1.41421;"><path d="M25.31,150.506l75.94,78.698c1.707,1.775 4.262,2.805 6.956,2.805c2.693,0 5.248,-1.03 6.955,-2.805l76.373,-79.141c17.02,-17.627 23.598,-34.646 24.701,-51.927c3.354,-50.069 -40.801,-92.233 -95.428,-97.512c-64.85,-6.411 -120.807,37.448 -120.807,92.286c0,19.784 7.606,39.265 25.31,57.596l0,0Zm28.794,-80.694c0,-4.255 4.032,-7.697 9.017,-7.697l90.169,0c14.919,0 27.052,10.36 27.052,23.096c0,12.736 -12.133,23.098 -27.052,23.098l-9.928,0c-4.19,17.551 -22.403,30.796 -44.174,30.796c-24.858,0 -45.084,-17.27 -45.084,-38.495l0,-30.798Z" style="fill-rule:nonzero;"/><path d="M162.307,85.211c0,-4.247 -4.041,-7.699 -9.017,-7.699l-9.015,0l0,15.398l9.015,0c4.976,0 9.017,-3.45 9.017,-7.699Z" style="fill-rule:nonzero;"/><path d="M99.188,123.708c14.917,0 27.052,-10.362 27.052,-23.098l0,-23.098l-54.104,0l0,23.098c0,12.736 12.136,23.098 27.052,23.098Z" style="fill-rule:nonzero;"/></svg>