<?xml version="1.0" encoding="UTF-8" standalone="no"?><!DOCTYPE svg PUBLIC "-//W3C//DTD SVG 1.1//EN" "http://www.w3.org/Graphics/SVG/1.1/DTD/svg11.dtd"><svg width="100%" height="100%" viewBox="0 0 217 233" version="1.1" xmlns="http://www.w3.org/2000/svg" xmlns:xlink="http://www.w3.org/1999/xlink" xml:space="preserve" style="fill-rule:evenodd;clip-rule:evenodd;stroke-linejoin:round;stroke-miterlimit:1.41421;"><path d="M25.378,151.149l76.146,79.034c1.711,1.782 4.274,2.817 6.974,2.817c2.701,0 5.263,-1.035 6.974,-2.817l76.579,-79.48c17.067,-17.701 23.662,-34.793 24.769,-52.148c3.363,-50.282 -40.911,-92.627 -95.687,-97.928c-65.025,-6.438 -121.133,37.608 -121.133,92.681c0,19.867 7.626,39.431 25.378,57.841l0,0Zm28.872,-81.039c0,-4.273 4.043,-7.73 9.041,-7.73l90.413,0c14.959,0 27.125,10.405 27.125,23.194c0,12.791 -12.166,23.198 -27.125,23.198l-9.955,0c-4.201,17.625 -22.464,30.927 -44.293,30.927c-24.926,0 -45.206,-17.343 -45.206,-38.659l0,-30.93l0,0Z" style="fill:#3088d4;fill-rule:nonzero;"/><path d="M162.746,85.574c0,-4.264 -4.052,-7.732 -9.042,-7.732l-9.04,0l0,15.466l9.04,0c4.99,0 9.042,-3.467 9.042,-7.734Z" style="fill:#3088d4;fill-rule:nonzero;"/><path d="M99.456,124.236c14.957,0 27.125,-10.406 27.125,-23.196l0,-23.198l-54.25,0l0,23.198c0,12.79 12.169,23.196 27.125,23.196l0,0Z" style="fill:#3088d4;fill-rule:nonzero;"/></svg>