<?xml version="1.0" encoding="UTF-8" standalone="no"?><!DOCTYPE svg PUBLIC "-//W3C//DTD SVG 1.1//EN" "http://www.w3.org/Graphics/SVG/1.1/DTD/svg11.dtd"><svg width="100%" height="100%" viewBox="0 0 217 233" version="1.1" xmlns="http://www.w3.org/2000/svg" xmlns:xlink="http://www.w3.org/1999/xlink" xml:space="preserve" style="fill-rule:evenodd;clip-rule:evenodd;stroke-linejoin:round;stroke-miterlimit:1.41421;"><g><path d="M25.31,150.506l75.94,78.699c1.708,1.774 4.263,2.805 6.956,2.805c2.693,0 5.248,-1.031 6.956,-2.805l76.372,-79.142c17.021,-17.627 23.598,-34.646 24.702,-51.927c3.353,-50.069 -40.801,-92.233 -95.429,-97.512c-64.85,-6.411 -120.807,37.448 -120.807,92.287c0,19.784 7.606,39.265 25.31,57.595l0,0Z" style="fill:#3088d4;"/><path d="M153.29,62.115c14.919,0 27.053,10.36 27.053,23.096c0,12.736 -12.134,23.098 -27.053,23.098l-9.928,0c-4.189,17.551 -22.403,30.796 -44.173,30.796c-24.859,0 -45.085,-17.269 -45.085,-38.495l0,-30.798c0,-4.254 4.032,-7.697 9.018,-7.697l90.168,0Zm-27.049,15.397l0,23.098c0,12.736 -12.136,23.098 -27.052,23.098c-14.917,0 -27.052,-10.362 -27.052,-23.098l0,-23.098l54.104,0Zm27.049,15.399c4.977,-0.001 9.018,-3.451 9.018,-7.7c0,-4.247 -4.041,-7.699 -9.018,-7.699l-9.015,0l0,15.399l9.015,0Z" style="fill:#fff;"/></g></svg>