<svg xmlns="http://www.w3.org/2000/svg"><symbol id="mastodon-svg-logo-full" viewBox="0 0 713.35878 175.8678" fill-rule="evenodd"><g id="mastodon.-svg.-logo.-full"><g><path d="M328.522,114.176c-13.237,-13.947 -18.902,-28.705 -18.902,-43.692c0,-41.602 41.79,-74.874 90.221,-70.011c40.796,4.005 73.772,35.992 71.267,73.974c-0.824,13.111 -5.736,26.022 -18.447,39.393l-57.036,60.039c-1.275,1.346 -3.183,2.128 -5.195,2.128c-2.011,0 -3.919,-0.782 -5.194,-2.128l-56.714,-59.703l0,0Z" fill="#3088d4"/><path d="M416.685,82.165c-3.18,13.352 -16.762,23.363 -32.989,23.363c-18.565,0 -33.67,-13.101 -33.67,-29.203l0,-23.364c0,-3.228 3.011,-5.839 6.734,-5.84l67.34,0c11.141,0.001 20.203,7.86 20.203,17.522c0,9.637 -9.017,17.482 -20.203,17.522l-7.415,0l0,0Zm-12.786,-23.363l0,17.523c0,9.661 -9.064,17.522 -20.203,17.522c-11.14,0 -20.203,-7.861 -20.203,-17.522l0,-17.523l40.406,0Zm20.201,11.682c3.716,-0.001 6.734,-2.618 6.734,-5.841c0,-3.196 -2.97,-5.799 -6.734,-5.841l-6.733,0l0,11.682l6.733,0Z"/></g><g><path d="M253.711,122.704c7.908,0 16.233,-1.12 20.117,-2.737l0,-16.421c-5.41,1.12 -10.96,1.618 -16.926,1.618c-15.4,0 -20.95,-5.598 -20.95,-29.483c0,-24.133 5.55,-29.731 21.089,-29.731c4.856,0 10.96,0.498 16.787,1.368l0,-16.793c-7.214,-1.493 -14.012,-2.115 -20.394,-2.115c-27.471,0 -42.039,14.803 -42.039,47.147c0,32.343 14.29,47.147 42.316,47.147Zm-230.164,-74.888l-23.309,0l0,-18.287l70.48,0l0,18.287l-23.447,0l0,73.768l-23.724,0l0,-73.768Zm149.836,-18.287l0,19.655l-40.651,53.367l0,1.12l42.871,0l0,17.913l-69.093,0l0,-19.53l40.651,-53.243l0,-1.368l-38.569,0l0,-17.914l64.791,0Zm333.651,0l61.462,0l0,17.789l-37.598,0l0,21.272l33.714,0l0,17.914l-33.714,0l0,35.08l-23.864,0l0,-92.055Zm160.381,0l0,17.789l-39.263,0l0,19.158l34.962,0l0,17.913l-34.962,0l0,19.406l40.512,0l0,17.789l-64.375,0l0,-92.055l63.126,0Z"/></g></g></symbol></svg>